<svg width="72" height="72" viewBox="0 0 72 72" fill="none" xmlns="http://www.w3.org/2000/svg">
<path d="M33.1615 30.69C34.423 30.69 35.49 30.2544 36.3622 29.3832C37.2345 28.512 37.6695 27.4476 37.6671 26.19C37.6647 24.9324 37.2297 23.8668 36.3622 22.9932C35.4948 22.1196 34.4278 21.6852 33.1615 21.69C31.8951 21.6948 30.8293 22.1304 29.9643 22.9968C29.0992 23.8632 28.663 24.9276 28.6558 26.19C28.6486 27.4524 29.0848 28.518 29.9643 29.3868C30.8438 30.2556 31.9095 30.69 33.1615 30.69ZM66.7735 72C64.2503 72 60.8561 70.95 56.5907 68.85C52.3254 66.75 47.7597 63.9 42.8936 60.3C41.7522 60.6 40.5963 60.8256 39.4261 60.9768C38.2558 61.128 37.0687 61.2024 35.8648 61.2C28.836 61.2 22.8886 58.77 18.0225 53.91C13.1564 49.05 10.7234 43.11 10.7234 36.09C10.7234 34.89 10.8135 33.69 10.9937 32.49C11.174 31.29 11.4143 30.12 11.7146 28.98C8.17021 24.12 5.33226 19.5756 3.2008 15.3468C1.06934 11.118 0.002403 7.74241 0 5.22001C0 3.60001 0.450563 2.32561 1.35169 1.39681C2.25282 0.468008 3.48435 0.00240796 5.04631 7.9646e-06C6.60826 -0.00239203 8.63639 0.537608 11.1307 1.62001C13.625 2.70241 17.0637 4.53241 21.4468 7.11001C20.1852 7.77001 19.0138 8.46001 17.9324 9.18001C16.8511 9.90001 15.7997 10.68 14.7785 11.52C13.637 10.86 12.5257 10.29 11.4443 9.81C10.363 9.33 9.22153 8.82001 8.02002 8.28001C9.10138 10.56 10.2584 12.78 11.4912 14.94C12.7239 17.1 14.0299 19.23 15.4093 21.33C17.6921 18.09 20.6058 15.54 24.1502 13.68C27.6946 11.82 31.5995 10.89 35.8648 10.89C42.8936 10.89 48.8567 13.3356 53.754 18.2268C58.6513 23.118 61.0988 29.0724 61.0964 36.09C61.0964 40.35 60.1496 44.25 58.256 47.79C56.3625 51.33 53.7948 54.24 50.5532 56.52C52.6558 57.9 54.8041 59.22 56.998 60.48C59.192 61.74 61.4292 62.88 63.7096 63.9C63.229 62.76 62.734 61.65 62.2246 60.57C61.7151 59.49 61.1288 58.38 60.4656 57.24C61.3667 56.22 62.1777 55.14 62.8986 54C63.6195 52.86 64.2803 51.69 64.8811 50.49C67.6445 55.17 69.5225 58.6656 70.5149 60.9768C71.5074 63.288 72.0024 65.2224 72 66.78C72 68.52 71.5194 69.8256 70.5582 70.6968C69.597 71.568 68.3354 72.0024 66.7735 72ZM42.1727 46.89C43.194 46.89 44.0507 46.5444 44.7427 45.8532C45.4348 45.162 45.7796 44.3076 45.7772 43.29C45.7748 42.2724 45.43 41.418 44.7427 40.7268C44.0555 40.0356 43.1988 39.69 42.1727 39.69C41.1466 39.69 40.2912 40.0356 39.6063 40.7268C38.9214 41.418 38.5754 42.2724 38.5682 43.29C38.561 44.3076 38.907 45.1632 39.6063 45.8568C40.3056 46.5504 41.1611 46.8948 42.1727 46.89ZM46.6783 34.29C47.4593 34.29 48.1057 34.0344 48.6176 33.5232C49.1294 33.012 49.3841 32.3676 49.3817 31.59C49.3793 30.8124 49.1246 30.168 48.6176 29.6568C48.1105 29.1456 47.4641 28.89 46.6783 28.89C45.8926 28.89 45.2474 29.1456 44.7427 29.6568C44.2381 30.168 43.9822 30.8124 43.975 31.59C43.9678 32.3676 44.2237 33.0132 44.7427 33.5268C45.2618 34.0404 45.907 34.2948 46.6783 34.29ZM34.8736 53.91C31.8098 51.27 28.8661 48.54 26.0426 45.72C23.219 42.9 20.5156 39.96 17.9324 36.9C18.0526 39.18 18.5632 41.3256 19.4643 43.3368C20.3655 45.348 21.597 47.1324 23.1589 48.69C24.7209 50.2476 26.4931 51.4776 28.4756 52.38C30.4581 53.2824 32.5907 53.7924 34.8736 53.91ZM44.1552 52.02C47.0388 50.52 49.3817 48.3456 51.184 45.4968C52.9862 42.648 53.8874 39.4824 53.8874 36C53.8874 31.02 52.1296 26.79 48.614 23.31C45.0984 19.83 40.8487 18.09 35.8648 18.09C32.3805 18.09 29.2265 18.99 26.403 20.79C23.5795 22.59 21.4168 24.93 19.9149 27.81C23.3392 32.37 27.0939 36.69 31.179 40.77C35.2641 44.85 39.5895 48.6 44.1552 52.02Z" fill="white"/>
</svg>
