<svg width="23" height="24" viewBox="0 0 23 24" fill="none" xmlns="http://www.w3.org/2000/svg">
<path d="M11.9065 0C9.75068 0.000399197 7.6354 0.590486 5.7863 1.70732C3.9372 2.82415 2.42365 4.42582 1.40709 6.3415C0.390529 8.25717 -0.0909023 10.415 0.01415 12.5848C0.119202 14.7545 0.806797 16.8549 2.00359 18.6617C3.20038 20.4686 4.86147 21.9142 6.80968 22.8443C8.75788 23.7745 10.9201 24.1543 13.0657 23.9432C15.2114 23.7322 17.2599 22.9381 18.9928 21.6459C20.7257 20.3536 22.078 18.6116 22.9054 16.6056C23.3114 15.6216 22.3385 14.6328 21.3596 15.0336C19.6819 15.7184 17.819 15.7891 16.095 15.2333C14.3709 14.6775 12.8946 13.5305 11.9229 11.9916C10.9511 10.4527 10.5453 8.61933 10.7759 6.81018C11.0066 5.00103 11.8592 3.33056 13.1855 2.0892L13.2772 1.9932C13.9334 1.2372 13.4118 0.00960002 12.3745 0.00960002H12.0577L11.9768 0.00239997L11.9065 0Z" fill="black"/>
</svg>
